<?xml version="1.0" encoding="utf-8"?>
<svg version="1.1" id="Layer_1" x="0px" y="0px" width="100%" viewBox="0 0 899 607" enable-background="new 0 0 899 607" xmlns="http://www.w3.org/2000/svg">
  <path opacity="1.000000" stroke="none" d=" M1.000000,607.000000 C1.000000,405.039825 1.000000,203.079636 1.000000,1.059725 C300.567780,1.059725 600.135559,1.059725 900.000000,1.059725 C900.000000,202.694611 900.000000,404.389343 899.534973,606.541992 C607.380127,606.999939 315.690277,607.000244 24.000450,606.993225 C22.005554,606.993225 20.010662,606.891907 18.163082,606.536255 C24.247400,602.144287 30.231882,598.120605 36.107750,593.944153 C41.721203,589.954285 47.995228,586.520691 52.586460,581.555115 C59.123539,574.484924 64.477859,566.303223 70.147179,558.458801 C72.039970,555.839783 74.267540,552.949402 74.764023,549.924072 C76.836769,537.293884 78.303856,524.564392 80.003159,511.872650 C81.397598,501.457886 82.755402,491.037872 84.222939,480.633362 C85.757454,469.754059 87.461151,458.898560 88.984406,448.017761 C90.441490,437.609650 91.707436,427.174835 93.155563,416.765381 C95.053879,403.119904 97.080727,389.492340 98.991127,375.848511 C100.448181,365.442383 101.752319,355.014740 103.228943,344.611511 C105.095734,331.459473 107.113174,318.328827 108.983101,305.177246 C110.870087,291.905731 112.656067,278.619873 114.531853,265.009796 C122.699852,268.314941 127.074478,274.955994 131.403000,281.807159 C137.177002,290.946289 142.538696,300.495026 149.414337,308.754974 C160.416840,321.972717 176.267593,325.443878 192.460434,325.839172 C208.246735,326.224487 223.643250,323.030548 238.429947,317.099823 C254.694412,310.576416 269.282166,301.320892 283.519073,291.230194 C296.609863,281.951843 310.173157,273.315094 323.802002,264.835602 C328.119446,262.149445 333.317596,260.878815 338.569458,258.940857 C346.663239,259.230469 354.300293,259.539581 362.300598,259.919922 C367.009430,263.155975 372.229431,265.612915 375.497314,269.650024 C380.507812,275.839935 384.605988,282.891022 388.327026,289.977966 C397.846313,308.108124 413.059692,318.594818 432.845337,320.650726 C445.160980,321.930359 458.243591,321.230377 470.287537,318.430969 C487.490906,314.432281 503.857330,307.144714 518.525391,296.930695 C531.179199,288.119293 543.243958,278.456268 555.970886,269.757538 C567.365051,261.969635 579.677429,255.719574 593.663208,254.107971 C606.113708,252.673264 617.756348,255.110092 625.720337,265.579224 C630.748230,272.188629 634.290588,279.924225 638.539551,287.130951 C646.546509,300.711578 657.621887,310.065796 673.218628,314.307007 C684.487793,317.371399 695.716553,318.002625 706.920166,315.841827 C717.768433,313.749542 728.619934,311.045441 738.985168,307.276611 C747.206604,304.287201 754.885803,299.602966 762.465210,295.098236 C774.143127,288.157562 785.863586,281.511871 795.114014,270.851898 C802.117859,262.780823 811.444214,256.740387 819.626038,249.667938 C822.457153,247.220688 824.727051,244.097183 827.658569,241.799667 C831.779724,238.569748 836.212402,235.718048 840.632263,232.892929 C846.820801,228.937317 853.042358,225.021164 859.391541,221.332199 C867.588745,216.569489 875.925903,212.047729 885.183289,206.874222 C882.983215,205.668015 882.425781,205.098679 881.862854,205.093201 C872.918030,205.006180 863.932678,204.441315 855.036011,205.084305 C840.352234,206.145599 826.869507,211.601288 813.780640,218.044968 C793.643860,227.958328 775.940308,241.623978 757.907776,254.712906 C743.322815,265.299438 727.954956,272.947174 709.422974,271.959229 C703.041382,271.618958 697.443115,269.434540 692.496826,265.012970 C684.896301,258.218750 681.008606,249.049850 676.023682,240.616302 C668.287231,227.527740 658.673645,216.775970 643.409119,212.801254 C636.636169,211.037643 629.644104,209.376801 622.707947,209.176376 C615.069824,208.955673 607.381714,210.466431 599.299316,211.173859 C593.461426,212.426346 588.039551,213.727890 582.511353,214.996796 C582.404968,214.964142 582.212769,215.076263 581.834229,215.031250 C580.295837,215.631088 579.135925,216.275940 577.962158,216.932800 C577.948303,216.944778 577.919006,216.966843 577.751160,217.030121 C577.583313,217.093399 577.245605,217.214233 576.870483,217.194809 C574.266968,218.137695 571.933594,218.913055 569.827759,220.093948 C559.417236,225.931839 548.774475,231.426056 538.776306,237.909225 C528.489258,244.579712 519.125488,252.673508 508.842621,259.351410 C500.648071,264.673126 492.043335,269.771301 482.951782,273.189636 C473.737610,276.654114 464.019653,276.856293 453.815918,274.391266 C446.493683,272.622406 441.436493,268.964752 437.588379,263.701202 C432.412476,256.621552 428.521973,248.606537 424.022980,241.026672 C413.683655,223.607056 398.000549,215.218689 377.876892,213.605728 C372.498383,213.157455 367.324158,212.650848 362.235260,213.103668 C356.389374,213.623886 350.619080,214.993713 344.481445,216.163971 C341.175323,217.178513 338.204773,218.027557 335.231812,218.867996 C311.349335,225.619324 291.739990,240.068665 272.207642,254.432770 C257.499268,265.249329 242.603317,275.401764 224.278503,280.167969 C215.964447,279.475616 208.090179,278.838501 199.856262,278.110535 C194.984070,273.589539 189.775345,269.661896 186.127441,264.607697 C181.070877,257.601837 177.284760,249.690170 172.777908,242.273727 C166.459351,231.875885 155.935547,226.010529 146.388321,219.462585 C139.278442,214.586273 130.580505,212.025406 122.585548,208.431396 C125.659966,185.468811 128.735382,161.716537 132.045227,137.996964 C135.376205,114.126007 138.940308,90.287590 142.446182,66.132187 C143.646866,66.242615 144.778381,66.213181 145.843063,66.465637 C154.602646,68.542824 158.664993,75.654305 162.789886,82.576614 C169.479263,93.802635 175.324921,105.502014 185.585068,114.291183 C192.733582,120.414825 200.655167,123.918800 210.051697,125.382248 C218.795685,126.180893 227.321381,126.685143 235.854416,126.971596 C237.530731,127.027863 239.235291,126.242569 241.349426,125.903549 C256.358795,124.148834 270.131836,119.514343 283.127594,112.902672 C301.151123,103.733116 317.050201,91.276360 333.317688,79.383354 C349.137909,67.817368 365.793671,57.902912 386.637634,60.041069 C394.462250,60.843712 401.849457,62.960258 406.508514,70.062309 C411.996796,78.428368 417.163879,87.007240 422.735199,95.316185 C429.926178,106.040657 438.537781,115.170639 451.460083,119.032204 C464.899841,123.048431 478.227234,123.600121 492.321960,121.447502 C506.683105,119.254196 520.384644,115.310638 532.584534,108.331268 C549.762695,98.503906 565.824463,86.687508 582.134766,75.391258 C598.280090,64.209229 614.521973,54.140930 635.535461,55.829491 C644.210876,56.526611 651.344055,59.309299 656.334167,66.065376 C661.286865,72.770805 664.976074,80.397690 669.754211,87.247330 C674.217346,93.645317 678.591309,100.471977 684.406555,105.482826 C695.952820,115.431923 710.589783,118.497940 725.303833,118.804680 C740.968079,119.131226 756.114380,115.135788 770.626160,109.107750 C776.223083,106.782845 782.295166,105.170662 787.287170,101.911270 C797.413757,95.299446 807.203613,88.101631 816.659241,80.552864 C825.555359,73.450722 834.639648,66.303864 842.215576,57.892670 C854.189941,44.598274 866.683472,31.989002 880.567383,20.721869 C886.075073,16.252287 891.381104,11.534102 896.778870,6.929065 C882.958069,6.476275 870.007629,8.688616 857.695984,13.744622 C837.848877,21.895153 820.354187,34.046368 802.998901,46.428608 C790.756348,55.163086 779.070923,64.835045 764.329895,70.154007 C756.621155,70.720535 749.322815,71.517784 742.002808,71.893761 C738.455017,72.075981 734.866699,71.468384 730.956238,71.067520 C728.001526,69.044807 724.702271,67.672981 722.902100,65.206894 C717.604248,57.949371 712.549866,50.461617 708.040161,42.692532 C699.377869,27.769670 688.288574,16.465799 670.511658,12.833591 C655.202087,9.705519 640.103516,9.679899 625.020325,13.483359 C603.949219,18.796803 585.053467,28.800774 567.371216,41.152042 C550.280579,53.090115 534.657288,67.270386 514.457764,75.061813 C505.449188,75.788879 496.868866,76.504616 487.895691,77.119217 C478.674042,75.163269 472.088654,70.046211 467.369781,62.587013 C463.422974,56.348244 459.571228,50.008839 456.239532,43.429344 C447.580200,26.328775 432.500061,17.373247 414.793610,15.377399 C392.944092,12.914553 371.442352,16.708282 350.991425,26.251350 C334.804810,33.804558 320.545258,44.036617 306.167786,54.278553 C297.756317,60.270557 289.490509,66.517181 280.723724,71.946098 C272.091003,77.291962 262.401917,80.669991 252.332626,81.797585 C240.090118,83.168549 228.183960,81.508209 220.397751,70.473190 C215.324219,63.282692 211.772858,55.026031 206.789581,47.761475 C202.769028,41.900330 198.006561,36.416744 192.897537,31.462456 C183.797287,22.637794 171.167801,21.662649 159.803894,18.232857 C151.714905,15.791484 143.021851,15.356540 134.601364,14.007494 C120.524788,11.752289 106.459373,9.425549 92.371078,7.246457 C86.810638,6.386402 80.897224,6.802615 77.243721,11.146039 C73.969597,15.038435 76.426811,19.795395 78.492050,24.131561 C82.576401,32.707077 86.540947,41.364796 89.959511,50.218468 C91.137665,53.269737 91.100952,57.078400 90.661263,60.414837 C88.990181,73.095230 86.790535,85.705154 85.045517,98.376816 C82.872200,114.158699 81.091614,129.994949 78.887489,145.772232 C76.413857,163.478546 73.591911,181.135895 71.039505,198.831573 C67.970390,220.109573 64.944473,241.394501 62.051830,262.697052 C59.576988,280.922760 57.462166,299.197906 54.922531,317.414124 C52.113800,337.560516 48.891075,357.649017 46.057240,377.792084 C43.540955,395.677979 41.435627,413.621704 38.920250,431.507721 C36.087448,451.650787 32.872089,471.740173 30.058870,491.885864 C27.515018,510.102570 25.353247,528.372314 22.905155,546.602844 C20.238245,566.462952 17.435644,586.304810 14.381210,606.391968 C9.713483,606.752869 5.356741,606.876465 1.000000,607.000000 M240.999557,162.628830 C240.812439,155.945923 238.950745,150.119873 233.173981,145.994415 C222.022949,138.030991 205.066177,141.851486 196.763184,152.522934 C182.388733,170.997757 180.357727,191.305939 188.120911,212.789856 C191.264603,221.489670 196.169571,230.122910 204.089630,234.684753 C216.687500,241.940933 230.922546,242.933273 245.140015,239.368591 C258.140076,236.109161 269.024475,229.524231 277.709351,218.990250 C286.097656,208.815994 289.101990,198.115250 284.033508,185.591873 C280.927368,177.917221 273.942139,173.342316 265.891876,172.911514 C256.450439,172.406281 249.606537,176.874664 243.331604,183.087387 C241.872513,184.532043 240.295883,187.829590 237.887222,185.005554 C236.726227,183.644348 236.865891,180.663315 237.268387,178.580353 C238.246857,173.516602 239.723587,168.549133 240.999557,162.628830 M800.476135,188.976746 C799.656860,185.852692 799.086304,182.636505 797.969849,179.622543 C795.094299,171.860001 787.945374,167.350540 779.912048,166.911285 C770.050293,166.372040 763.117981,171.298462 756.605408,177.723907 C755.542786,178.772354 753.393799,178.719696 751.746887,179.175964 C751.454468,177.298203 750.582764,175.281174 750.993469,173.572449 C751.783081,170.287888 753.557617,167.249725 754.464844,163.981995 C757.004333,154.835434 753.672668,144.515640 747.148193,139.995010 C735.915405,132.212158 720.242371,135.010742 711.539795,145.328140 C693.715637,166.459824 692.769165,197.462799 709.638428,220.041046 C712.337830,223.654007 715.505188,227.768784 719.408997,229.486725 C738.908264,238.067871 758.261414,237.237640 776.634827,226.030014 C790.225159,217.740021 799.896240,206.559418 800.476135,188.976746 M446.461975,152.984573 C434.594360,171.761948 433.644287,191.488876 442.413940,211.501770 C445.109131,217.652374 449.408325,223.429733 454.095642,228.296860 C460.394348,234.837158 469.486542,236.223297 478.011017,236.838455 C499.836151,238.413406 518.282959,231.022690 531.922852,213.490784 C539.343384,203.952881 542.164978,193.406204 537.066895,181.586349 C533.791565,173.992493 526.947388,169.350708 518.930237,168.911255 C509.078613,168.371246 502.140076,173.273987 495.632568,179.700546 C494.562622,180.757187 492.421844,180.729492 490.775940,181.202927 C490.464935,179.327774 489.544647,177.298935 489.970734,175.609726 C490.836548,172.177505 492.776886,169.018280 493.661285,165.588455 C496.937744,152.881790 489.082367,139.486038 477.422943,138.067520 C464.376495,136.480225 453.989929,141.033417 446.461975,152.984573 z" style="fill: rgba(0, 0, 0, 0); paint-order: fill;"/>
  <path fill="#FFFFFF" opacity="1.000000" stroke="none" d=" M18.015770,606.837891 C20.010662,606.891907 22.005554,606.993225 24.000450,606.993225 C315.690277,607.000244 607.380127,606.999939 899.534973,607.000000 C899.833313,607.333313 899.684082,607.943787 899.497192,607.955566 C898.169128,608.039001 896.833313,608.000000 895.500000,608.000000 C597.333313,608.000000 299.166656,608.000000 1.000000,607.500000 C5.356741,606.876465 9.713483,606.752869 14.598871,606.694336 C16.090267,606.785522 17.053019,606.811707 18.015770,606.837891 z"/>
  <path fill="#0256A5" opacity="1.000000" stroke="none" d=" M18.163082,606.536255 C17.053019,606.811707 16.090267,606.785522 14.909856,606.456970 C17.435644,586.304810 20.238245,566.462952 22.905155,546.602844 C25.353247,528.372314 27.515018,510.102570 30.058870,491.885864 C32.872089,471.740173 36.087448,451.650787 38.920250,431.507721 C41.435627,413.621704 43.540955,395.677979 46.057240,377.792084 C48.891075,357.649017 52.113800,337.560516 54.922531,317.414124 C57.462166,299.197906 59.576988,280.922760 62.051830,262.697052 C64.944473,241.394501 67.970390,220.109573 71.039505,198.831573 C73.591911,181.135895 76.413857,163.478546 78.887489,145.772232 C81.091614,129.994949 82.872200,114.158699 85.045517,98.376816 C86.790535,85.705154 88.990181,73.095230 90.661263,60.414837 C91.100952,57.078400 91.137665,53.269737 89.959511,50.218468 C86.540947,41.364796 82.576401,32.707077 78.492050,24.131561 C76.426811,19.795395 73.969597,15.038435 77.243721,11.146039 C80.897224,6.802615 86.810638,6.386402 92.371078,7.246457 C106.459373,9.425549 120.524788,11.752289 134.601364,14.007494 C143.021851,15.356540 151.714905,15.791484 159.803894,18.232857 C171.167801,21.662649 183.797287,22.637794 192.897537,31.462456 C198.006561,36.416744 202.769028,41.900330 206.789581,47.761475 C211.772858,55.026031 215.324219,63.282692 220.397751,70.473190 C228.183960,81.508209 240.090118,83.168549 252.332626,81.797585 C262.401917,80.669991 272.091003,77.291962 280.723724,71.946098 C289.490509,66.517181 297.756317,60.270557 306.167786,54.278553 C320.545258,44.036617 334.804810,33.804558 350.991425,26.251350 C371.442352,16.708282 392.944092,12.914553 414.793610,15.377399 C432.500061,17.373247 447.580200,26.328775 456.239532,43.429344 C459.571228,50.008839 463.422974,56.348244 467.369781,62.587013 C472.088654,70.046211 478.674042,75.163269 488.202698,77.347321 C497.699707,78.147049 506.511475,78.761971 514.885986,75.050491 C534.657288,67.270386 550.280579,53.090115 567.371216,41.152042 C585.053467,28.800774 603.949219,18.796803 625.020325,13.483359 C640.103516,9.679899 655.202087,9.705519 670.511658,12.833591 C688.288574,16.465799 699.377869,27.769670 708.040161,42.692532 C712.549866,50.461617 717.604248,57.949371 722.902100,65.206894 C724.702271,67.672981 728.001526,69.044807 731.219604,71.289757 C736.049438,72.338264 740.332947,73.809669 744.488220,73.508736 C751.279907,73.016869 757.988037,71.370659 764.731384,70.211411 C779.070923,64.835045 790.756348,55.163086 802.998901,46.428608 C820.354187,34.046368 837.848877,21.895153 857.695984,13.744622 C870.007629,8.688616 882.958069,6.476275 896.778870,6.929065 C891.381104,11.534102 886.075073,16.252287 880.567383,20.721869 C866.683472,31.989002 854.189941,44.598274 842.215576,57.892670 C834.639648,66.303864 825.555359,73.450722 816.659241,80.552864 C807.203613,88.101631 797.413757,95.299446 787.287170,101.911270 C782.295166,105.170662 776.223083,106.782845 770.626160,109.107750 C756.114380,115.135788 740.968079,119.131226 725.303833,118.804680 C710.589783,118.497940 695.952820,115.431923 684.406555,105.482826 C678.591309,100.471977 674.217346,93.645317 669.754211,87.247330 C664.976074,80.397690 661.286865,72.770805 656.334167,66.065376 C651.344055,59.309299 644.210876,56.526611 635.535461,55.829491 C614.521973,54.140930 598.280090,64.209229 582.134766,75.391258 C565.824463,86.687508 549.762695,98.503906 532.584534,108.331268 C520.384644,115.310638 506.683105,119.254196 492.321960,121.447502 C478.227234,123.600121 464.899841,123.048431 451.460083,119.032204 C438.537781,115.170639 429.926178,106.040657 422.735199,95.316185 C417.163879,87.007240 411.996796,78.428368 406.508514,70.062309 C401.849457,62.960258 394.462250,60.843712 386.637634,60.041069 C365.793671,57.902912 349.137909,67.817368 333.317688,79.383354 C317.050201,91.276360 301.151123,103.733116 283.127594,112.902672 C270.131836,119.514343 256.358795,124.148834 241.077881,125.631104 C230.201141,125.204201 220.018570,125.107895 209.835983,125.011589 C200.655167,123.918800 192.733582,120.414825 185.585068,114.291183 C175.324921,105.502014 169.479263,93.802635 162.789886,82.576614 C158.664993,75.654305 154.602646,68.542824 145.843063,66.465637 C144.778381,66.213181 143.646866,66.242615 142.446182,66.132187 C138.940308,90.287590 135.376205,114.126007 132.045227,137.996964 C128.735382,161.716537 125.659966,185.468811 122.585548,208.431396 C130.580505,212.025406 139.278442,214.586273 146.388321,219.462585 C155.935547,226.010529 166.459351,231.875885 172.777908,242.273727 C177.284760,249.690170 181.070877,257.601837 186.127441,264.607697 C189.775345,269.661896 194.984070,273.589539 200.079498,278.361389 C208.488586,282.255280 216.529099,282.415710 224.718292,280.223145 C242.603317,275.401764 257.499268,265.249329 272.207642,254.432770 C291.739990,240.068665 311.349335,225.619324 335.231812,218.867996 C338.204773,218.027557 341.175323,217.178513 344.936096,216.223328 C356.523132,215.399261 367.321014,214.685318 378.118896,213.971359 C398.000549,215.218689 413.683655,223.607056 424.022980,241.026672 C428.521973,248.606537 432.412476,256.621552 437.588379,263.701202 C441.436493,268.964752 446.493683,272.622406 453.815918,274.391266 C464.019653,276.856293 473.737610,276.654114 482.951782,273.189636 C492.043335,269.771301 500.648071,264.673126 508.842621,259.351410 C519.125488,252.673508 528.489258,244.579712 538.776306,237.909225 C548.774475,231.426056 559.417236,225.931839 569.827759,220.093948 C571.933594,218.913055 574.266968,218.137695 576.949829,217.294342 C577.666138,217.425095 577.837769,217.276276 577.919006,216.966843 C577.919006,216.966843 577.948303,216.944778 578.310486,216.931961 C579.852722,216.304855 581.032715,215.690567 582.212769,215.076263 C582.212769,215.076263 582.404968,214.964142 582.960693,215.035568 C588.916016,213.812286 594.315674,212.517578 599.715332,211.222870 C607.381714,210.466431 615.069824,208.955673 622.707947,209.176376 C629.644104,209.376801 636.636169,211.037643 643.409119,212.801254 C658.673645,216.775970 668.287231,227.527740 676.023682,240.616302 C681.008606,249.049850 684.896301,258.218750 692.496826,265.012970 C697.443115,269.434540 703.041382,271.618958 709.422974,271.959229 C727.954956,272.947174 743.322815,265.299438 757.907776,254.712906 C775.940308,241.623978 793.643860,227.958328 813.780640,218.044968 C826.869507,211.601288 840.352234,206.145599 855.036011,205.084305 C863.932678,204.441315 872.918030,205.006180 881.862854,205.093201 C882.425781,205.098679 882.983215,205.668015 885.183289,206.874222 C875.925903,212.047729 867.588745,216.569489 859.391541,221.332199 C853.042358,225.021164 846.820801,228.937317 840.632263,232.892929 C836.212402,235.718048 831.779724,238.569748 827.658569,241.799667 C824.727051,244.097183 822.457153,247.220688 819.626038,249.667938 C811.444214,256.740387 802.117859,262.780823 795.114014,270.851898 C785.863586,281.511871 774.143127,288.157562 762.465210,295.098236 C754.885803,299.602966 747.206604,304.287201 738.985168,307.276611 C728.619934,311.045441 717.768433,313.749542 706.920166,315.841827 C695.716553,318.002625 684.487793,317.371399 673.218628,314.307007 C657.621887,310.065796 646.546509,300.711578 638.539551,287.130951 C634.290588,279.924225 630.748230,272.188629 625.720337,265.579224 C617.756348,255.110092 606.113708,252.673264 593.663208,254.107971 C579.677429,255.719574 567.365051,261.969635 555.970886,269.757538 C543.243958,278.456268 531.179199,288.119293 518.525391,296.930695 C503.857330,307.144714 487.490906,314.432281 470.287537,318.430969 C458.243591,321.230377 445.160980,321.930359 432.845337,320.650726 C413.059692,318.594818 397.846313,308.108124 388.327026,289.977966 C384.605988,282.891022 380.507812,275.839935 375.497314,269.650024 C372.229431,265.612915 367.009430,263.155975 362.117767,259.598785 C353.780029,256.451691 345.954041,256.973083 338.112701,258.960388 C333.317596,260.878815 328.119446,262.149445 323.802002,264.835602 C310.173157,273.315094 296.609863,281.951843 283.519073,291.230194 C269.282166,301.320892 254.694412,310.576416 238.429947,317.099823 C223.643250,323.030548 208.246735,326.224487 192.460434,325.839172 C176.267593,325.443878 160.416840,321.972717 149.414337,308.754974 C142.538696,300.495026 137.177002,290.946289 131.403000,281.807159 C127.074478,274.955994 122.699852,268.314941 114.531853,265.009796 C112.656067,278.619873 110.870087,291.905731 108.983101,305.177246 C107.113174,318.328827 105.095734,331.459473 103.228943,344.611511 C101.752319,355.014740 100.448181,365.442383 98.991127,375.848511 C97.080727,389.492340 95.053879,403.119904 93.155563,416.765381 C91.707436,427.174835 90.441490,437.609650 88.984406,448.017761 C87.461151,458.898560 85.757454,469.754059 84.222939,480.633362 C82.755402,491.037872 81.397598,501.457886 80.003159,511.872650 C78.303856,524.564392 76.836769,537.293884 74.764023,549.924072 C74.267540,552.949402 72.039970,555.839783 70.147179,558.458801 C64.477859,566.303223 59.123539,574.484924 52.586460,581.555115 C47.995228,586.520691 41.721203,589.954285 36.107750,593.944153 C30.231882,598.120605 24.247400,602.144287 18.163082,606.536255 z"/>
  <path fill="#EA2218" opacity="1.000000" stroke="none" d=" M240.999573,163.085846 C239.723587,168.549133 238.246857,173.516602 237.268387,178.580353 C236.865891,180.663315 236.726227,183.644348 237.887222,185.005554 C240.295883,187.829590 241.872513,184.532043 243.331604,183.087387 C249.606537,176.874664 256.450439,172.406281 265.891876,172.911514 C273.942139,173.342316 280.927368,177.917221 284.033508,185.591873 C289.101990,198.115250 286.097656,208.815994 277.709351,218.990250 C269.024475,229.524231 258.140076,236.109161 245.140015,239.368591 C230.922546,242.933273 216.687500,241.940933 204.089630,234.684753 C196.169571,230.122910 191.264603,221.489670 188.120911,212.789856 C180.357727,191.305939 182.388733,170.997757 196.763184,152.522934 C205.066177,141.851486 222.022949,138.030991 233.173981,145.994415 C238.950745,150.119873 240.812439,155.945923 240.999573,163.085846 z"/>
  <path fill="#EA2218" opacity="1.000000" stroke="none" d=" M800.688110,189.351013 C799.896240,206.559418 790.225159,217.740021 776.634827,226.030014 C758.261414,237.237640 738.908264,238.067871 719.408997,229.486725 C715.505188,227.768784 712.337830,223.654007 709.638428,220.041046 C692.769165,197.462799 693.715637,166.459824 711.539795,145.328140 C720.242371,135.010742 735.915405,132.212158 747.148193,139.995010 C753.672668,144.515640 757.004333,154.835434 754.464844,163.981995 C753.557617,167.249725 751.783081,170.287888 750.993469,173.572449 C750.582764,175.281174 751.454468,177.298203 751.746887,179.175964 C753.393799,178.719696 755.542786,178.772354 756.605408,177.723907 C763.117981,171.298462 770.050293,166.372040 779.912048,166.911285 C787.945374,167.350540 795.094299,171.860001 797.969849,179.622543 C799.086304,182.636505 799.656860,185.852692 800.688110,189.351013 z"/>
  <path fill="#EA2218" opacity="1.000000" stroke="none" d=" M446.685791,152.688049 C453.989929,141.033417 464.376495,136.480225 477.422943,138.067520 C489.082367,139.486038 496.937744,152.881790 493.661285,165.588455 C492.776886,169.018280 490.836548,172.177505 489.970734,175.609726 C489.544647,177.298935 490.464935,179.327774 490.775940,181.202911 C492.421844,180.729492 494.562622,180.757187 495.632568,179.700546 C502.140076,173.273987 509.078613,168.371246 518.930237,168.911255 C526.947388,169.350708 533.791565,173.992493 537.066895,181.586349 C542.164978,193.406204 539.343384,203.952881 531.922852,213.490784 C518.282959,231.022690 499.836151,238.413406 478.011017,236.838455 C469.486542,236.223297 460.394348,234.837158 454.095642,228.296860 C449.408325,223.429733 445.109131,217.652374 442.413940,211.501770 C433.644287,191.488876 434.594360,171.761948 446.685791,152.688049 z"/>
  <path fill="#6095C7" opacity="1.000000" stroke="none" d=" M764.329895,70.153999 C757.988037,71.370659 751.279907,73.016869 744.488220,73.508736 C740.332947,73.809669 736.049438,72.338264 731.560059,71.440598 C734.866699,71.468384 738.455017,72.075981 742.002808,71.893761 C749.322815,71.517784 756.621155,70.720535 764.329895,70.153999 z"/>
  <path fill="#518AC1" opacity="1.000000" stroke="none" d=" M377.876892,213.605728 C367.321014,214.685318 356.523132,215.399261 345.270599,216.053864 C350.619080,214.993713 356.389374,213.623886 362.235260,213.103668 C367.324158,212.650848 372.498383,213.157455 377.876892,213.605728 z"/>
  <path fill="#548CC2" opacity="1.000000" stroke="none" d=" M210.051697,125.382248 C220.018570,125.107895 230.201141,125.204201 240.655273,125.572952 C239.235291,126.242569 237.530731,127.027863 235.854416,126.971596 C227.321381,126.685143 218.795685,126.180893 210.051697,125.382248 z"/>
  <path fill="#548CC2" opacity="1.000000" stroke="none" d=" M224.278503,280.167969 C216.529099,282.415710 208.488586,282.255280 200.439133,278.452271 C208.090179,278.838501 215.964447,279.475616 224.278503,280.167969 z"/>
  <path fill="#71A0CD" opacity="1.000000" stroke="none" d=" M338.569458,258.940857 C345.954041,256.973083 353.780029,256.451691 361.754517,259.527527 C354.300293,259.539581 346.663239,259.230469 338.569458,258.940857 z"/>
  <path fill="#558DC3" opacity="1.000000" stroke="none" d=" M514.457764,75.061813 C506.511475,78.761971 497.699707,78.147049 488.595520,77.448456 C496.868866,76.504616 505.449188,75.788879 514.457764,75.061813 z"/>
  <path fill="#558DC3" opacity="1.000000" stroke="none" d=" M599.299316,211.173843 C594.315674,212.517578 588.916016,213.812286 583.067017,215.068207 C588.039551,213.727890 593.461426,212.426346 599.299316,211.173843 z"/>
  <path fill="#558DC3" opacity="1.000000" stroke="none" d=" M581.834229,215.031250 C581.032715,215.690567 579.852722,216.304855 578.324341,216.919983 C579.135925,216.275940 580.295837,215.631088 581.834229,215.031250 z"/>
  <path fill="#558DC3" opacity="1.000000" stroke="none" d=" M577.751160,217.030121 C577.837769,217.276276 577.666138,217.425095 577.324951,217.313782 C577.245605,217.214233 577.583313,217.093399 577.751160,217.030121 z"/>
</svg>