<?xml version="1.0" encoding="utf-8"?>
<svg version="1.1" id="Layer_1" x="0px" y="0px" width="100%" viewBox="0 0 1369 600" enable-background="new 0 0 1369 600" xmlns="http://www.w3.org/2000/svg">
  <path fill="#0256A5" opacity="1.000000" stroke="none" d=" M15.460636,601.000000 C16.331539,592.958679 17.770107,584.933228 18.970564,576.872375 C20.974636,563.415283 22.851885,549.939026 24.734127,536.464111 C26.188585,526.051636 27.531555,515.623596 28.991545,505.211975 C30.907183,491.550842 32.942314,477.906342 34.825378,464.240845 C36.284107,453.654755 37.518559,443.037750 38.980846,432.452209 C40.441837,421.876038 42.108376,411.328400 43.599586,400.756226 C45.114269,390.017639 46.485336,379.258789 47.991081,368.518890 C49.860981,355.181580 51.841984,341.859802 53.704456,328.521484 C55.181290,317.944946 56.501339,307.346466 57.983742,296.770752 C59.487961,286.039429 61.148235,275.330048 62.662052,264.600037 C64.154282,254.023010 65.511276,243.426956 66.995300,232.848755 C68.888527,219.353821 70.894264,205.874588 72.767319,192.376907 C74.235306,181.798187 75.522469,171.194397 76.985497,160.614960 C78.830040,147.276733 80.818871,133.958435 82.656738,120.619316 C84.159149,109.714935 85.492867,98.787384 86.972733,87.879791 C88.342766,77.781639 89.938469,67.712006 91.149071,57.595627 C91.503250,54.635914 91.685310,51.212952 90.560410,48.598625 C86.556351,39.293003 82.088821,30.177097 77.535324,21.120817 C74.210167,14.507542 77.260246,8.609566 84.628242,9.121097 C95.594498,9.882437 106.527153,11.277973 117.433418,12.712830 C129.463211,14.295500 141.456757,16.164753 153.448380,18.023365 C167.887573,20.261326 182.589676,22.274858 194.186798,32.148346 C199.079208,36.313629 202.930466,41.895321 206.564133,47.297829 C211.380875,54.459282 215.214935,62.281807 220.033630,69.441780 C225.367020,77.366508 233.184647,81.534447 242.802475,81.943321 C262.169281,82.766624 278.054718,74.434341 293.206360,63.404537 C308.174377,52.508423 323.398376,41.889854 339.106537,32.107296 C352.439636,23.803843 367.363464,18.526754 382.910309,16.322906 C393.684235,14.795646 405.076935,13.498577 415.613129,15.367949 C432.775177,18.412918 447.843689,26.273975 456.191925,43.275070 C459.565735,50.145782 463.612732,56.734299 467.857117,63.116222 C472.590515,70.233360 478.933624,75.476761 488.466187,77.225227 C497.872650,78.594513 506.381653,78.093117 514.670532,75.146500 C534.489197,67.387871 550.144897,53.197357 567.251587,41.227173 C584.918457,28.865021 603.830322,18.994825 624.854431,13.506142 C642.554749,8.885192 660.369263,9.179339 677.568909,14.572729 C689.060913,18.176344 698.063477,26.337191 704.557800,36.911980 C710.471985,46.541981 716.550781,56.088573 723.021973,65.346909 C724.750366,67.819801 728.181824,69.102318 731.476318,71.223633 C743.042480,74.171471 753.864746,74.396629 764.506775,70.196663 C776.104858,66.112801 785.731384,58.707966 795.648499,51.774525 C805.442810,44.926937 815.065979,37.788475 825.218445,31.512379 C835.228821,25.324074 845.520142,19.423550 856.214478,14.552220 C868.425659,8.989963 881.494080,6.038836 896.560120,5.796358 C894.066833,8.364280 892.644409,10.097457 890.959229,11.519082 C883.166199,18.092869 874.939758,24.198692 867.543335,31.186314 C855.982544,42.108017 845.406860,54.096382 833.589233,64.715034 C822.760071,74.445503 810.892822,83.029968 799.382629,91.990395 C789.398193,99.763084 778.902710,106.709190 766.729858,110.686134 C766.113159,110.887627 765.441895,110.922142 764.122192,110.990791 C752.998352,113.094872 742.544067,115.222069 732.106140,117.426697 C731.210327,117.615921 730.423096,118.319473 729.585449,118.784119 C712.926270,118.995277 696.578613,116.218025 684.042847,104.994148 C675.860535,97.668083 670.206116,87.355911 664.075867,77.953278 C659.348022,70.701698 655.844116,62.735142 647.348328,58.697403 C637.965332,54.237976 628.107178,55.043831 618.728210,56.978073 C601.433594,60.544781 587.727905,71.295853 573.883911,81.663322 C553.647888,96.817688 532.775818,111.068710 508.151611,118.321869 C501.605377,120.250099 494.660095,120.823784 487.015106,121.961182 C477.386383,121.618279 468.640625,121.333588 459.894836,121.048889 C443.161224,118.615517 431.283813,109.206802 422.570374,95.175148 C417.050812,86.286713 412.007385,77.005630 405.575836,68.823929 C402.625916,65.071259 396.850830,63.539448 391.768402,60.622902 C384.182556,60.048592 377.177246,59.593109 370.192474,59.807003 C367.990692,59.874435 365.843842,61.735538 363.671844,62.775726 C350.983459,66.508614 340.522736,74.207863 329.958069,81.719101 C320.884125,88.170486 311.796112,94.602402 302.755554,101.100296 C288.275238,111.508018 272.314423,118.752388 255.159866,123.434433 C252.505768,124.158829 249.751343,124.515594 246.172440,124.959595 C235.768021,125.231644 226.234482,125.586479 216.700928,125.941315 C204.710861,125.434181 194.169540,121.832870 184.889557,113.647171 C175.130188,105.038620 169.405457,93.864258 163.043732,83.043724 C158.183884,74.777710 152.986038,67.200958 142.016998,65.208626 C135.264648,113.584053 128.515793,161.934464 121.793144,210.097076 C132.040604,212.761612 141.085892,216.070007 148.989655,222.234497 C152.801559,225.207596 157.374619,227.182480 161.427124,229.874222 C168.882462,234.826157 172.991928,242.545532 177.577347,249.873413 C182.347092,257.495880 187.050797,265.178955 192.260910,272.495483 C193.960968,274.882812 197.160309,276.202545 200.290466,278.306763 C210.337189,282.775360 219.889923,281.463684 229.463028,279.241089 C232.568451,277.828003 235.580841,276.140656 238.795670,275.050049 C251.566147,270.717896 261.307465,261.599976 272.203217,254.290314 C285.661377,245.261597 298.793549,235.593018 312.955872,227.821503 C322.562408,222.549957 333.699005,220.066803 344.936584,216.243698 C359.847931,214.086243 373.999481,212.988052 388.233612,215.033890 C399.796387,218.144318 410.690521,222.759232 417.977722,232.665787 C423.865143,240.669418 429.058380,249.249741 433.878021,257.951752 C437.683380,264.822449 442.363953,271.104218 449.612854,273.445068 C456.262299,275.592285 463.781158,276.049347 470.840729,275.702026 C483.036987,275.101959 493.744354,269.711456 503.678558,262.821259 C519.954956,251.532120 536.007568,239.898743 552.608459,229.108765 C560.085754,224.248779 568.656250,221.070816 577.086548,217.131989 C577.442383,217.134277 577.453064,217.174179 577.453064,217.174179 C577.453064,217.174179 577.757263,216.856476 578.285278,216.762054 C580.045532,216.138412 581.277893,215.609207 582.510193,215.080017 C582.510193,215.080017 582.495056,215.003952 582.956238,215.076904 C588.767578,213.837402 594.117676,212.524948 599.467834,211.212494 C606.479126,210.459091 613.496216,209.048218 620.500244,209.110519 C630.340393,209.198044 640.148499,210.585968 649.282227,214.702942 C661.373901,220.153168 669.522827,229.541595 676.132507,240.825333 C680.989929,249.117630 686.256592,257.378510 692.643433,264.482300 C696.044678,268.265350 702.054321,271.184875 707.159973,271.680969 C723.626465,273.280884 738.359192,268.160309 752.068359,258.606628 C772.434570,244.413712 791.799011,228.633652 814.403870,217.819092 C826.503845,212.030243 838.790039,206.930130 852.977295,205.459686 C856.668457,205.396774 859.660767,204.892883 862.602295,205.102173 C868.791748,205.542542 874.954529,206.357056 881.128296,207.018021 C871.884888,216.841614 858.610596,219.835831 847.675598,226.779739 C836.648621,233.782043 826.109070,241.378387 816.728210,250.625046 C810.337097,256.924652 803.025146,262.290405 796.118408,268.065979 C795.500916,268.582306 794.577087,268.903046 794.231628,269.548157 C789.661011,278.084900 781.442139,282.609314 773.823853,287.554016 C764.209412,293.794403 754.333191,299.743744 744.098389,304.878967 C736.573486,308.654480 728.415283,311.336090 720.314697,313.751862 C710.807861,316.587006 700.977295,317.545258 690.983948,317.110199 C667.789429,316.100281 649.555359,306.981476 637.904053,286.122467 C633.516663,278.267914 629.100159,270.224213 623.373657,263.372742 C615.415588,253.851440 604.030823,252.875122 592.431580,254.343124 C579.111938,256.028870 567.460632,262.084930 556.563538,269.362976 C544.967041,277.108032 533.951782,285.721405 522.651917,293.913116 C510.484253,302.733948 497.045380,308.857147 483.046356,314.363373 C467.483032,320.484924 451.582001,321.999084 435.436890,320.834808 C418.684296,319.626709 403.957428,313.093719 394.072052,298.637146 C387.782745,289.439545 381.985138,279.902100 376.085205,270.443359 C372.867371,265.284546 367.967712,262.435364 362.103577,259.625977 C353.773102,259.133728 346.031250,259.009277 338.289368,258.884827 C333.473816,260.805328 328.231842,262.049744 323.920135,264.769073 C309.092560,274.120758 294.399139,283.714233 280.020813,293.740662 C267.040009,302.792511 253.673523,311.051575 238.987885,316.980133 C223.777908,323.120361 207.827042,326.414520 191.492035,325.858643 C175.430298,325.312073 159.847443,321.548340 149.051590,308.411316 C142.323608,300.224304 137.077866,290.798553 131.373245,281.797943 C127.039574,274.960388 122.705368,268.248993 114.125618,264.897339 C112.722038,275.020538 111.397499,284.746002 110.020378,294.464050 C108.130371,307.801422 106.154747,321.126801 104.302094,334.469330 C102.809990,345.215210 101.476326,355.983032 100.016190,366.733459 C98.622391,376.995392 97.172974,387.249847 95.716919,397.503174 C94.169846,408.397461 92.585121,419.286377 91.018799,430.177917 C89.078156,443.672272 87.099915,457.161377 85.212906,470.663239 C83.756577,481.083405 82.416374,491.519775 81.023537,501.948822 C79.630341,512.380554 78.305191,522.822021 76.813248,533.239624 C76.047874,538.583923 75.531540,544.062805 73.884888,549.151489 C72.511887,553.394714 69.899063,557.319397 67.396790,561.094482 C63.878433,566.402588 60.306900,571.754089 56.098583,576.502625 C52.354126,580.727722 47.866302,584.350891 43.426842,587.888733 C37.976910,592.231873 32.236332,596.210388 26.810698,600.673218 C23.307091,601.000000 19.614182,601.000000 15.460636,601.000000 z"/>
  <path fill="#0256A6" opacity="1.000000" stroke="none" d=" M1370.000000,527.533142 C1369.459106,528.169189 1368.518433,528.226013 1368.434814,528.523743 C1364.736450,541.675476 1354.527710,547.174194 1342.463989,549.603455 C1328.723999,552.370239 1314.936279,551.796570 1301.504028,547.211975 C1294.006104,544.652893 1294.004883,544.655945 1294.003906,536.908020 C1294.003662,534.419312 1294.003906,531.930542 1294.003906,528.908875 C1299.383789,530.917358 1304.261475,533.102478 1309.347412,534.561646 C1320.122925,537.653259 1331.001465,538.416626 1341.961548,535.079041 C1348.420410,533.112061 1352.094849,528.532043 1352.786377,522.313965 C1353.384644,516.934265 1350.577881,512.305786 1345.490479,509.853943 C1336.347412,505.447357 1327.191895,501.027191 1317.820679,497.145813 C1310.502319,494.114655 1303.788818,490.387268 1298.781006,484.209839 C1290.596191,474.113098 1292.816772,454.325439 1307.301392,446.839233 C1317.172241,441.737579 1327.614502,440.316315 1338.336304,441.641937 C1346.728516,442.679535 1354.961914,444.962585 1363.292969,446.550140 C1366.736450,447.206299 1367.720947,448.484558 1365.889160,451.831055 C1364.175537,454.961578 1363.020142,458.397736 1361.504761,461.968658 C1351.444702,457.889313 1341.167236,454.433350 1330.124268,455.081146 C1326.241211,455.308960 1322.227783,456.014771 1318.612305,457.391266 C1314.510986,458.952698 1311.516602,462.003143 1311.076782,466.888092 C1310.580444,472.402008 1312.363525,476.620514 1317.518188,479.036224 C1324.604004,482.357086 1331.549438,486.087402 1338.876953,488.759338 C1351.586304,493.393768 1363.247070,499.042969 1369.642822,512.091675 C1370.000000,517.022095 1370.000000,522.044189 1370.000000,527.533142 z"/>
  <path opacity="1.000000" stroke="none" d="M 962.051 548.941 C 956.979 548.994 951.907 549.046 946.439 548.562 C 946.066 513.196 946.108 478.366 946.1 443.537 C 946.098 431.709 945.969 419.881 945.898 408.053 C 965.103 408.652 984.505 407.763 1003.459 410.264 C 1022.905 412.831 1034.229 426.071 1035.225 446.578 C 1035.861 459.694 1033.14 471.628 1023.035 480.821 C 1014.974 488.156 1005.056 491.895 994.471 493.005 C 984.442 494.058 974.276 493.798 963.34 494.278 C 962.259 495.046 961.787 495.651 961.789 496.255 C 961.848 513.817 961.953 531.379 962.051 548.941 M 961.595 424.91 C 961.595 434.106 961.596 469.225 961.596 477.087 C 961.909 477.08 966.881 478.239 967.194 478.232 C 1080.571 456.55 983.803 414.814 962.535 424.928 C 962.221 424.922 961.908 424.916 961.595 424.91 Z" style="fill: rgb(1, 85, 165);"/>
  <path fill="#EA2218" opacity="1.000000" stroke="none" d=" M1039.659424,527.262451 C1029.723145,504.051697 1031.796875,482.263092 1047.231812,462.743469 C1056.943359,450.461548 1076.866943,449.249542 1086.165771,459.539307 C1091.883545,465.866425 1092.319092,477.691589 1088.985962,486.072998 C1088.381592,487.592712 1087.162720,488.994049 1087.001343,490.531311 C1086.809204,492.361145 1087.451782,494.278656 1087.732666,496.158203 C1089.377563,495.701080 1091.250977,495.601440 1092.625854,494.722107 C1097.402710,491.667297 1101.590698,487.153198 1106.755615,485.346191 C1121.279785,480.264557 1132.943970,487.049286 1135.899658,502.274200 C1138.825073,517.342163 1131.023071,528.035828 1120.281982,537.411682 C1107.715454,548.381042 1092.998779,553.100769 1076.733154,551.774231 C1068.942383,551.138916 1060.298950,549.559509 1053.990845,545.430176 C1047.971436,541.489807 1044.484131,533.681458 1039.659424,527.262451 z"/>
  <path fill="#EA2218" opacity="1.000000" stroke="none" d=" M790.008179,214.997986 C771.808044,234.774078 743.269043,241.247528 718.996460,229.006836 C713.243835,226.105759 708.742920,219.336273 705.353210,213.385269 C693.164429,191.986420 695.238647,164.554016 711.583069,145.232559 C718.592346,136.946625 728.788452,133.734634 739.402405,136.351990 C753.627991,139.859970 756.534058,150.831528 754.602844,163.604218 C754.082336,167.046539 751.823547,170.195618 750.960449,173.629547 C750.536438,175.316650 751.478760,177.347153 751.802734,179.222229 C753.445618,178.721481 755.571167,178.708878 756.652222,177.639923 C763.165100,171.199936 770.215820,167.157501 779.966309,166.698563 C789.507996,166.249451 798.766357,176.882660 800.086304,185.311935 C801.913879,196.983398 797.861389,206.383438 790.008179,214.997986 z"/>
  <path fill="#EA2218" opacity="1.000000" stroke="none" d=" M184.000626,186.141693 C185.848648,168.068039 191.007767,152.104019 208.464722,144.029816 C220.875946,138.289368 237.088760,142.559479 240.337448,156.788742 C241.796265,163.178421 241.344818,169.481812 238.776825,175.564728 C238.204773,176.919815 237.071930,178.190887 236.974304,179.556198 C236.842224,181.402863 237.460617,183.303177 237.757050,185.180481 C239.400650,184.708771 241.267105,184.585388 242.647446,183.702194 C247.421219,180.647781 251.610504,176.138214 256.773834,174.337540 C271.269745,169.282150 282.937286,176.025436 285.898926,191.273331 C288.823090,206.328430 281.028351,217.021271 270.301178,226.398331 C257.600922,237.500122 242.743118,241.822388 226.267319,240.933456 C217.591705,240.465393 208.329453,239.198959 202.060257,233.113113 C196.241104,227.464157 192.052017,219.866776 188.143936,212.590820 C183.856308,204.608276 183.591507,195.570190 184.000626,186.141693 z"/>
  <path fill="#EA2218" opacity="1.000000" stroke="none" d=" M489.312622,144.787384 C495.755554,153.464523 495.070435,162.460678 491.717957,171.626511 C491.048096,173.457870 489.428589,175.088608 489.254333,176.908325 C489.113464,178.379379 490.209259,180.268494 491.328552,181.412399 C491.772980,181.866562 493.958527,181.104309 495.010986,180.392548 C499.837219,177.128815 504.106506,172.552414 509.375244,170.525314 C524.180603,164.829086 536.608154,172.719513 539.006531,188.269272 C541.294800,203.105103 533.635071,213.267670 523.305054,222.378143 C510.662842,233.527832 495.791504,237.770798 479.321655,236.952545 C470.785858,236.528458 461.667847,235.222717 455.495026,229.479614 C449.463715,223.868164 444.273590,216.343872 441.288849,208.659271 C432.958344,187.211151 435.465302,166.614944 449.974731,148.149170 C459.497375,136.029907 480.085052,133.968948 489.312622,144.787384 z"/>
  <path fill="#0156A7" opacity="1.000000" stroke="none" d=" M824.001282,404.169952 C829.138489,404.169952 834.275757,404.169952 839.760376,404.169952 C839.760376,451.053192 839.760376,497.764374 839.760376,544.979736 C833.491150,544.979736 827.367798,545.097717 821.256775,544.875488 C820.100891,544.833435 818.608276,543.690979 817.921143,542.633728 C802.239075,518.505737 786.657593,494.312500 771.034973,470.145874 C762.075317,456.286163 753.076294,442.451904 744.028992,428.504517 C744.028992,436.297424 744.028992,443.644531 743.979553,451.925903 C743.972107,483.522217 744.014099,514.184265 744.056091,544.846375 C739.346191,544.881714 734.636353,544.917053 729.462524,544.433716 C728.999268,497.333313 728.999939,450.751587 729.000610,404.169861 C734.651733,404.115906 740.312378,404.244812 745.951172,403.953033 C750.921692,403.695862 751.513550,408.109619 753.293640,410.777252 C764.620667,427.752014 775.697510,444.895477 786.723083,462.069153 C799.131958,481.397491 811.399963,500.816315 823.962158,520.561890 C823.962158,510.319427 823.962158,500.623199 823.959961,489.996643 C823.972290,460.767517 823.986816,432.468719 824.001282,404.169952 z"/>
  <path fill="#0256A6" opacity="1.000000" stroke="none" d=" M237.999069,404.168610 C251.646820,404.114990 265.319489,403.526123 278.935272,404.159424 C292.345642,404.783173 305.775513,406.014740 316.706085,415.705109 C322.243164,420.613953 325.242096,426.843262 326.714020,433.514740 C328.895721,443.403076 328.629364,453.508728 323.734467,462.801331 C319.181335,471.445068 312.074005,477.527557 302.943909,480.837860 C299.687073,482.018677 300.068665,483.492706 301.298340,485.477875 C312.315247,503.263550 323.412659,520.999329 334.449280,538.772888 C335.616852,540.653137 336.546478,542.681152 337.772766,544.991516 C331.561768,544.991516 325.758972,545.158630 319.978394,544.874084 C318.532684,544.802917 316.586243,543.620605 315.837738,542.369873 C305.544647,525.169922 295.356079,507.906158 285.323975,490.552734 C283.765381,487.856750 281.969299,486.890900 278.981079,486.948395 C271.326233,487.095764 263.666687,486.998444 255.353668,487.369080 C254.467712,489.528198 254.040817,491.316803 254.036987,493.106293 C254.000183,510.350647 254.034607,527.595154 254.048645,544.839600 C249.007858,544.877747 243.967056,544.915833 238.462067,544.435059 C237.998245,497.333618 237.998657,450.751129 237.999069,404.168610 M278.196655,419.003998 C270.610352,419.003998 263.024048,419.003998 255.406555,419.003998 C255.406555,437.011566 255.406555,454.250244 255.406555,471.940491 C265.310333,471.940491 275.015137,472.721832 284.510406,471.649139 C290.259216,470.999664 296.196228,468.267426 301.133606,465.061646 C308.583435,460.224487 308.774628,452.028717 309.168945,443.835205 C309.689301,433.021881 301.995422,422.835693 290.770294,420.979828 C286.890076,420.338318 283.013000,419.677979 278.196655,419.003998 z"/>
  <path fill="#0357A7" opacity="1.000000" stroke="none" d=" M633.311768,416.378662 C633.695251,415.580750 633.904236,415.132080 634.094482,414.675598 C638.981750,402.947205 638.989136,402.870117 651.505371,404.132660 C652.808228,404.264069 654.578125,405.742310 655.075012,407.009735 C666.192139,435.364502 677.112732,463.796265 688.176697,492.171997 C694.475098,508.325439 700.968323,524.402832 707.352173,540.523010 C707.886597,541.872498 708.255005,543.287659 708.750305,544.827026 C702.545959,544.827026 696.606201,544.827026 690.542053,544.827026 C685.622192,532.036743 680.721436,519.356201 675.875122,506.654877 C674.646484,503.434784 672.884644,501.917877 668.995422,501.991272 C653.513489,502.283295 638.021484,502.220825 622.536438,502.028778 C619.019104,501.985199 617.242798,503.006866 616.029053,506.388885 C611.841980,518.056213 607.295349,529.593933 602.987183,541.218689 C602.000610,543.880676 600.609497,545.232666 597.540100,545.056152 C593.068237,544.799133 588.570679,544.990234 583.303650,544.990234 C587.284973,534.813965 591.105835,525.124084 594.870056,515.412292 C605.604614,487.717438 616.313416,460.012665 627.038818,432.314270 C629.053406,427.111664 631.097839,421.920593 633.311768,416.378662 M648.149231,429.392639 C647.573975,427.639313 646.998718,425.885986 646.423035,424.131287 C639.010071,444.894073 631.743469,465.246918 624.452576,485.667847 C638.909485,485.667847 653.300232,485.667847 668.328369,485.667847 C666.277893,480.136902 664.342896,475.122406 662.555359,470.055908 C657.858398,456.743073 653.225525,443.407654 648.149231,429.392639 z"/>
  <path fill="#0256A6" opacity="1.000000" stroke="none" d=" M493.568268,406.263184 C504.710724,410.380615 504.401154,407.856964 500.053864,420.249329 C499.574677,421.615326 498.880768,422.905975 498.207001,424.408630 C490.738861,422.415222 483.480865,419.660217 475.990051,418.674835 C465.415405,417.283875 454.585724,416.244446 444.927429,423.020111 C436.649963,428.826965 436.184967,445.778320 442.314545,451.869019 C449.479889,458.988953 458.267517,462.440826 467.218811,466.096680 C478.239441,470.597717 489.559082,474.478424 498.193024,483.510712 C506.477631,492.177612 508.145752,502.502289 506.634155,513.548767 C503.789764,534.335205 487.346069,543.515503 469.509796,546.082642 C455.209290,548.140747 441.183197,546.800781 427.240417,543.864746 C418.628448,542.051270 418.004089,540.917786 418.003815,532.302124 C418.003723,529.671265 418.003845,527.040405 418.003845,524.205933 C425.989227,526.402710 433.417480,528.983032 441.060486,530.426880 C453.456940,532.768555 465.688568,532.825806 477.848969,527.781616 C491.430298,522.148010 493.826874,498.803375 479.814148,491.097290 C470.659973,486.063110 460.850769,482.195679 451.242218,478.019073 C441.592438,473.824524 431.920563,469.273682 426.201080,460.151306 C413.567657,440.001526 419.025879,411.759979 447.423157,404.188629 C461.641327,400.397736 476.098480,401.643188 490.268768,405.621277 C491.214447,405.886749 492.218689,405.943451 493.568268,406.263184 z"/>
  <path fill="#0155A6" opacity="1.000000" stroke="none" d=" M549.000000,404.001617 C556.495544,404.002930 563.491089,404.019775 570.486572,403.996613 C572.787537,403.989014 575.273804,404.078705 574.884155,407.191895 C574.532532,410.001282 577.210205,414.147949 571.619202,415.092743 C567.158203,415.846588 562.798889,417.202911 558.031677,418.381470 C558.031677,420.359406 558.031677,422.167389 558.031677,423.975372 C558.031677,457.620483 558.030640,491.265594 558.032471,524.910706 C558.032898,531.917908 558.410706,532.326660 565.440491,532.987854 C566.589844,533.095947 567.793640,532.994934 568.883606,533.303711 C575.230835,535.101746 575.827332,536.347961 574.399292,544.708984 C557.874939,544.708984 541.299500,544.708984 524.295715,544.708984 C524.193420,542.991882 524.142212,541.386108 523.993591,539.789429 C523.656189,536.164429 524.447693,534.440735 528.861206,533.694702 C541.066895,531.631287 541.001526,531.244690 541.001526,518.562561 C541.001526,487.249298 541.001526,455.936005 541.001526,424.622742 C541.001526,422.642792 541.001526,420.662842 541.001526,418.262024 C536.954834,417.365540 533.189941,416.344818 529.359741,415.733704 C525.244141,415.077026 523.207520,413.184601 523.968262,408.818115 C524.192200,407.532654 524.002686,406.175110 524.002686,404.001617 C532.329346,404.001617 540.414673,404.001617 549.000000,404.001617 z"/>
  <path fill="#0155A6" opacity="1.000000" stroke="none" d=" M399.375244,536.019958 C399.788055,538.959717 399.908905,541.591858 400.047852,544.617737 C382.963348,544.617737 366.257507,544.617737 349.722443,544.617737 C349.448364,544.280579 349.272766,544.164978 349.256226,544.029907 C348.130737,534.832703 348.466705,534.021118 360.282135,532.242371 C365.127625,531.512878 366.102478,529.719666 366.083130,525.312805 C365.934631,491.489716 366.001556,457.665680 366.001556,423.841919 C366.001556,422.187286 366.001556,420.532684 366.001556,418.311829 C362.431793,417.515594 359.010651,416.544189 355.522217,416.025330 C350.773132,415.318939 347.921936,413.381561 348.984528,408.029083 C349.204529,406.920959 349.169708,405.762207 349.297882,404.001617 C353.913086,404.001617 358.358734,404.001495 362.804413,404.001648 C373.468048,404.002045 384.131714,403.999603 394.795349,404.005127 C397.305939,404.006409 400.313507,403.632843 399.913330,407.506592 C399.620239,410.344299 401.971130,414.417297 396.310516,415.172852 C391.875031,415.764832 387.563660,417.286743 383.031677,418.437500 C383.031677,431.154175 383.031677,443.471039 383.031677,455.787903 C383.031708,478.781403 383.030548,501.774872 383.032410,524.768372 C383.032990,531.920288 383.382782,532.106079 390.291321,533.068665 C393.286591,533.486023 396.156433,534.803650 399.375244,536.019958 z"/>
  <path fill="#0155A5" opacity="1.000000" stroke="none" d=" M1231.166748,458.005188 C1226.328735,457.491547 1221.490845,456.977936 1216.506836,456.448822 C1214.920898,451.704346 1215.946655,448.161041 1221.339722,446.895081 C1230.474609,444.750793 1234.099609,438.399139 1235.276978,429.696228 C1235.706665,426.519775 1237.361572,423.509094 1238.451538,420.439728 C1238.796997,420.319000 1239.104492,420.125275 1239.418335,420.114319 C1251.054077,419.707245 1248.826172,419.943237 1248.985229,429.116211 C1249.065796,433.769989 1248.999268,438.426300 1248.999268,443.685730 C1258.935669,443.685730 1268.650146,443.685730 1278.734619,443.685730 C1278.734619,448.324036 1278.734619,452.364655 1278.734619,457.018768 C1269.083252,457.018768 1259.483032,457.018768 1249.159790,457.372314 C1248.297363,458.535065 1248.037598,459.344086 1248.036499,460.153473 C1248.010376,479.522705 1247.997925,498.891998 1248.046021,518.261108 C1248.048706,519.340027 1248.594116,520.417542 1248.886963,521.495728 C1249.937012,533.863342 1259.423950,539.910156 1272.703491,536.668823 C1274.128052,536.321167 1275.528320,535.849243 1276.968140,535.598145 C1277.663818,535.476807 1278.633667,535.475220 1279.120850,535.866211 C1281.091675,537.447571 1280.197998,547.562988 1277.954712,548.445923 C1269.011841,551.965637 1249.563477,552.838623 1240.860962,544.553528 C1235.459595,539.411194 1232.587646,533.402100 1231.972900,526.105835 C1231.850952,524.659302 1231.399170,523.240540 1231.360718,521.054443 C1231.707275,500.140472 1231.799072,479.981049 1231.848145,459.821503 C1231.849609,459.216614 1231.403931,458.610626 1231.166748,458.005188 z"/>
  <path fill="#0155A6" opacity="1.000000" stroke="none" d=" M1149.002441,469.000000 C1149.002441,460.549652 1149.002441,452.599335 1149.002441,444.330200 C1153.747070,444.330200 1157.998169,444.330200 1162.823853,444.330200 C1163.588013,449.896057 1164.368164,455.578644 1165.364502,462.835815 C1176.115234,445.385437 1189.924927,437.363068 1210.134033,442.794312 C1209.517944,447.501495 1208.839111,452.687103 1208.130615,458.100159 C1196.694458,455.780457 1186.682983,456.346985 1178.076538,463.982910 C1171.905640,469.457855 1168.248291,476.320251 1167.109009,484.318420 C1166.273926,490.180145 1166.155029,496.173767 1166.105591,502.111847 C1165.976807,517.545959 1166.062256,532.981873 1166.062256,548.704712 C1160.309937,548.704712 1155.060547,548.704712 1149.002441,548.704712 C1149.002441,522.265625 1149.002441,495.882812 1149.002441,469.000000 z"/>
  <path fill="#9074A5" opacity="1.000000" stroke="none" d=" M237.603851,404.335632 C237.998657,450.751129 237.998245,497.333618 237.998474,544.373779 C237.666245,543.679749 237.043579,542.528381 237.042358,541.376404 C236.994537,496.412048 237.002487,451.447601 237.013229,406.483185 C237.013382,405.822998 237.140686,405.162811 237.603851,404.335632 z"/>
  <path fill="#9074A5" opacity="1.000000" stroke="none" d=" M728.604980,404.335968 C728.999939,450.751587 728.999268,497.333313 728.999634,544.372559 C728.667236,543.679138 728.043579,542.528503 728.042358,541.377136 C727.994507,496.412323 728.002502,451.447418 728.013306,406.482544 C728.013428,405.822388 728.141113,405.162231 728.604980,404.335968 z"/>
  <path fill="#9074A5" opacity="1.000000" stroke="none" d=" M945.538086,408.282745 C945.969177,419.880585 946.097778,431.708679 946.100342,443.536743 C946.107971,478.366486 946.065552,513.196228 945.970459,548.486694 C945.598938,547.751282 945.039124,546.555420 945.038086,545.358948 C944.997437,500.238831 945.007751,455.118683 945.019043,409.998505 C945.019165,409.503326 945.122681,409.008148 945.538086,408.282745 z"/>
  <path fill="#3DB1F2" opacity="1.000000" stroke="none" d=" M744.451172,544.676514 C744.014099,514.184265 743.972107,483.522217 743.980591,452.388550 C744.369507,452.746216 745.004272,453.575562 745.003845,454.404572 C744.988037,484.438599 744.913086,514.472595 744.451172,544.676514 z"/>
  <path fill="#B691A5" opacity="1.000000" stroke="none" d=" M823.596069,404.318939 C823.986816,432.468719 823.972290,460.767517 823.897217,489.531525 C823.562500,489.454102 823.048401,488.911255 823.048767,488.368805 C823.068542,460.401825 823.132080,432.434875 823.596069,404.318939 z"/>
  <path fill="#3AAFF1" opacity="1.000000" stroke="none" d=" M1248.932129,521.077026 C1248.594116,520.417542 1248.048706,519.340027 1248.046021,518.261108 C1247.997925,498.891998 1248.010376,479.522705 1248.036499,460.153473 C1248.037598,459.344086 1248.297363,458.535065 1248.687988,457.400970 C1248.952026,478.270142 1248.964722,499.464203 1248.932129,521.077026 z"/>
  <path fill="#6655A5" opacity="1.000000" stroke="none" d=" M1231.101807,458.470490 C1231.403931,458.610626 1231.849609,459.216614 1231.848145,459.821503 C1231.799072,479.981049 1231.707275,500.140472 1231.394165,520.646790 C1231.123291,500.307709 1231.080078,479.621765 1231.101807,458.470490 z"/>
  <path fill="#0074D3" opacity="1.000000" stroke="none" d=" M254.424561,544.644897 C254.034607,527.595154 254.000183,510.350647 254.036987,493.106293 C254.040817,491.316803 254.467712,489.528198 254.890137,487.372833 C254.988129,506.154358 254.894302,525.302246 254.424561,544.644897 z"/>
  <path fill="#0074D3" opacity="1.000000" stroke="none" d=" M962.423340,548.725464 C961.953369,531.379028 961.847656,513.816833 961.789368,496.254547 C961.787354,495.651123 962.258850,495.046112 962.891724,494.218292 C963.182556,509.857391 963.097900,525.720093 962.992615,541.582581 C962.977295,543.891968 962.863464,546.200684 962.423340,548.725464 z"/>
  <path fill="#6094C7" opacity="1.000000" stroke="none" d=" M729.950806,118.809868 C730.423096,118.319473 731.210327,117.615921 732.106140,117.426697 C742.544067,115.222069 752.998352,113.094872 763.735229,111.038727 C757.226318,113.072418 750.482056,115.228783 743.616150,116.878967 C739.276672,117.921936 734.755676,118.209335 729.950806,118.809868 z"/>
  <path fill="#578FC3" opacity="1.000000" stroke="none" d=" M388.034424,214.656555 C373.999481,212.988052 359.847931,214.086243 345.272461,216.078339 C349.968201,214.995773 355.100372,213.229599 360.261169,213.141647 C369.443390,212.985168 378.642914,213.844650 388.034424,214.656555 z"/>
  <path fill="#5990C4" opacity="1.000000" stroke="none" d=" M229.059265,279.192596 C219.889923,281.463684 210.337189,282.775360 200.662994,278.398071 C205.647263,278.797943 210.863281,279.695587 216.107651,279.914581 C220.272278,280.088470 224.471573,279.431915 229.059265,279.192596 z"/>
  <path fill="#4C87C0" opacity="1.000000" stroke="none" d=" M881.449097,206.874496 C874.954529,206.357056 868.791748,205.542542 862.602295,205.102173 C859.660767,204.892883 856.668457,205.396774 853.365662,205.370209 C859.701965,204.787521 866.369080,204.347595 873.042725,204.063339 C876.549866,203.913956 880.068604,204.036957 883.582092,204.036957 C883.642090,204.455475 883.702087,204.873978 883.762085,205.292496 C883.098022,205.771988 882.433899,206.251480 881.449097,206.874496 z"/>
  <path fill="#6095C7" opacity="1.000000" stroke="none" d=" M764.126709,70.141075 C753.864746,74.396629 743.042480,74.171471 731.837402,71.360245 C735.075012,71.458885 738.615234,72.074615 742.113831,71.892067 C749.336548,71.515228 756.536987,70.712830 764.126709,70.141075 z"/>
  <path fill="#578FC3" opacity="1.000000" stroke="none" d=" M364.009155,62.774513 C365.843842,61.735538 367.990692,59.874435 370.192474,59.807003 C377.177246,59.593109 384.182556,60.048592 391.377869,60.521893 C382.312256,58.876797 373.281097,60.159859 364.009155,62.774513 z"/>
  <path fill="#5E93C6" opacity="1.000000" stroke="none" d=" M216.955475,126.323517 C226.234482,125.586479 235.768021,125.231644 245.772858,124.917603 C243.016632,125.648697 239.806122,126.812462 236.557999,126.929092 C230.119644,127.160286 223.660553,126.813568 216.955475,126.323517 z"/>
  <path fill="#558DC3" opacity="1.000000" stroke="none" d=" M514.263245,75.117020 C506.381653,78.093117 497.872650,78.594513 488.873962,77.323761 C496.974335,76.502129 505.415161,75.794838 514.263245,75.117020 z"/>
  <path fill="#71A0CD" opacity="1.000000" stroke="none" d=" M338.731049,258.899353 C346.031250,259.009277 353.773102,259.133728 361.743896,259.547668 C354.372772,259.529388 346.772736,259.221649 338.731049,258.899353 z"/>
  <path fill="#73A1CD" opacity="1.000000" stroke="none" d=" M460.095764,121.418716 C468.640625,121.333588 477.386383,121.618279 486.595612,121.997147 C480.175507,122.325111 473.293121,122.648987 466.407715,122.737099 C464.375092,122.763123 462.333923,122.123253 460.095764,121.418716 z"/>
  <path fill="#558DC3" opacity="1.000000" stroke="none" d=" M599.075684,211.167725 C594.117676,212.524948 588.767578,213.837402 582.968628,215.112885 C587.907715,213.758255 593.295654,212.440613 599.075684,211.167725 z"/>
  <path fill="#558DC3" opacity="1.000000" stroke="none" d=" M582.123291,215.037170 C581.277893,215.609207 580.045532,216.138412 578.482483,216.664734 C579.346619,216.106018 580.541565,215.550186 582.123291,215.037170 z"/>
  <path fill="#558DC3" opacity="1.000000" stroke="none" d=" M577.466553,217.167343 C577.453064,217.174179 577.442383,217.134277 577.478699,217.142303 C577.515015,217.150330 577.479980,217.160507 577.466553,217.167343 z"/>
  <path fill="#0074D3" opacity="1.000000" stroke="none" d=" M961.595215,452.999939 C961.594543,443.303162 961.594543,434.106384 961.594543,424.909637 C961.907898,424.915710 962.221191,424.921753 962.534546,424.927826 C962.534546,442.307526 962.534546,459.687225 962.534546,477.066925 C962.221680,477.073669 961.908813,477.080383 961.595947,477.087128 C961.595947,469.224731 961.595947,461.362335 961.595215,452.999939 z"/>
</svg>